<svg width="108" height="112" viewBox="0 0 108 112" fill="none" xmlns="http://www.w3.org/2000/svg">
<path d="M27.8793 7.43449H31.5965V52.0414H27.8793V7.43449Z" fill="#EAAE48"/>
<path d="M100.365 98.5069V111.517H94.7896L91.0724 104.083V98.5069H100.365Z" fill="#CE892A"/>
<path d="M100.365 98.5069V107.8H92.931L91.0724 104.083V98.5069H100.365Z" fill="#B0792C"/>
<path d="M44.6069 104.083V5.57586C44.6069 4.09705 45.1944 2.67881 46.2401 1.63313C47.2857 0.587455 48.704 0 50.1828 0H102.224C103.703 0 105.121 0.587455 106.167 1.63313C107.213 2.67881 107.8 4.09705 107.8 5.57586V98.5069C107.8 99.9857 107.213 101.404 106.167 102.45C105.121 103.495 103.703 104.083 102.224 104.083H44.6069Z" fill="#EAAE48"/>
<path d="M74.3448 0H78.0621V104.083H74.3448V0Z" fill="#D7A147"/>
<path d="M74.3449 98.5069V111.517H68.769L65.0518 104.083V98.5069H74.3449Z" fill="#EAAE48"/>
<path d="M74.3449 98.5069V107.8H66.9104L65.0518 104.083V98.5069H74.3449Z" fill="#D7A147"/>
<path d="M27.8793 98.5069V104.083L24.162 111.517H18.5862V98.5069H27.8793Z" fill="#EAAE48"/>
<path d="M27.8793 98.5069V104.083L26.0207 107.8H18.5862V98.5069H27.8793Z" fill="#D7A147"/>
<path d="M11.1517 89.2138V52.0414C11.1517 50.5626 11.7392 49.1443 12.7849 48.0986C13.8305 47.053 15.2488 46.4655 16.7276 46.4655H76.2034C77.6823 46.4655 79.1005 47.053 80.1462 48.0986C81.1918 49.1443 81.7793 50.5626 81.7793 52.0414V89.2138H11.1517Z" fill="#CACAC9"/>
<path d="M70.6276 87.3552V78.2456C70.6276 72.1303 75.4742 67.0139 81.5885 66.912C83.0608 66.8868 84.5235 67.1535 85.8921 67.6966C87.2608 68.2397 88.5083 69.0484 89.5628 70.0762C90.6172 71.104 91.4577 72.3304 92.0357 73.6846C92.6136 75.0389 92.9177 76.4943 92.9303 77.9667C92.9429 79.4391 92.6638 80.8994 92.109 82.2634C91.5543 83.6274 90.7349 84.868 89.6982 85.9136C88.6615 86.9593 87.428 87.7892 86.0688 88.3557C84.7096 88.9221 83.2518 89.2137 81.7793 89.2138V98.5069C81.7793 99.9857 81.1918 101.404 80.1462 102.45C79.1005 103.495 77.6822 104.083 76.2034 104.083H16.7276C15.2488 104.083 13.8305 103.495 12.7849 102.45C11.7392 101.404 11.1517 99.9857 11.1517 98.5069V89.2138C8.94612 89.2138 6.79005 88.5597 4.95616 87.3344C3.12227 86.109 1.69293 84.3673 0.848879 82.3296C0.00483188 80.2919 -0.216009 78.0497 0.214282 75.8865C0.644574 73.7232 1.70667 71.7362 3.26627 70.1766C4.82587 68.617 6.81291 67.5549 8.97613 67.1246C11.1394 66.6943 13.3816 66.9152 15.4193 67.7592C17.457 68.6033 19.1987 70.0326 20.424 71.8665C21.6494 73.7004 22.3034 75.8565 22.3034 78.0621V87.3552C22.3034 87.3552 29.7379 83.6379 46.4655 83.6379C63.1931 83.6379 70.6276 87.3552 70.6276 87.3552Z" fill="#E4E4E3"/>
<path d="M11.1517 83.6379C10.0489 83.6379 8.97083 83.3109 8.05389 82.6982C7.13694 82.0855 6.42227 81.2147 6.00025 80.1958C5.57822 79.177 5.4678 78.0559 5.68295 76.9742C5.89809 75.8926 6.42914 74.8991 7.20894 74.1193C7.98874 73.3395 8.98226 72.8085 10.0639 72.5933C11.1455 72.3782 12.2666 72.4886 13.2855 72.9106C14.3043 73.3326 15.1751 74.0473 15.7878 74.9643C16.4005 75.8812 16.7275 76.9592 16.7275 78.062C16.7259 79.5403 16.1379 80.9576 15.0926 82.0029C14.0472 83.0483 12.63 83.6362 11.1517 83.6379ZM11.1517 76.2034C10.7841 76.2034 10.4247 76.3124 10.1191 76.5167C9.81343 76.7209 9.5752 77.0112 9.43453 77.3508C9.29385 77.6904 9.25705 78.0641 9.32876 78.4246C9.40048 78.7852 9.57749 79.1164 9.83743 79.3763C10.0974 79.6362 10.4285 79.8132 10.7891 79.8849C11.1496 79.9567 11.5233 79.9199 11.8629 79.7792C12.2026 79.6385 12.4928 79.4003 12.6971 79.0946C12.9013 78.789 13.0103 78.4296 13.0103 78.062C13.0097 77.5693 12.8137 77.0968 12.4653 76.7484C12.1169 76.4 11.6444 76.204 11.1517 76.2034ZM81.7792 83.6379C80.6764 83.6379 79.5984 83.3109 78.6814 82.6982C77.7645 82.0855 77.0498 81.2147 76.6278 80.1958C76.2058 79.177 76.0954 78.0559 76.3105 76.9742C76.5257 75.8926 77.0567 74.8991 77.8365 74.1193C78.6163 73.3395 79.6098 72.8085 80.6914 72.5933C81.773 72.3782 82.8942 72.4886 83.913 72.9106C84.9319 73.3326 85.8027 74.0473 86.4154 74.9643C87.0281 75.8812 87.3551 76.9592 87.3551 78.062C87.3534 79.5403 86.7654 80.9576 85.7201 82.0029C84.6748 83.0483 83.2575 83.6362 81.7792 83.6379ZM81.7792 76.2034C81.4116 76.2034 81.0523 76.3124 80.7466 76.5167C80.441 76.7209 80.2028 77.0112 80.0621 77.3508C79.9214 77.6904 79.8846 78.0641 79.9563 78.4246C80.028 78.7852 80.2051 79.1164 80.465 79.3763C80.7249 79.6362 81.0561 79.8132 81.4166 79.8849C81.7772 79.9567 82.1509 79.9199 82.4905 79.7792C82.8301 79.6385 83.1204 79.4003 83.3246 79.0946C83.5288 78.789 83.6379 78.4296 83.6379 78.062C83.6373 77.5693 83.4413 77.0968 83.0929 76.7484C82.7444 76.4 82.272 76.204 81.7792 76.2034ZM16.7891 89.3283C16.6613 89.1011 16.5826 88.8495 16.5582 88.5899C16.5338 88.3303 16.5642 88.0685 16.6474 87.8214C16.7306 87.5743 16.8648 87.3475 17.0413 87.1556C17.2178 86.9637 17.4327 86.811 17.6719 86.7074C21.4631 85.0748 31.0287 81.7793 46.4655 81.7793C61.9022 81.7793 71.4639 85.0735 75.2562 86.7062C75.4957 86.8098 75.7108 86.9626 75.8875 87.1546C76.0642 87.3467 76.1986 87.5738 76.2818 87.8211C76.3651 88.0684 76.3954 88.3305 76.3708 88.5903C76.3462 88.8502 76.2672 89.1019 76.139 89.3292C75.9148 89.7288 75.551 90.0317 75.1174 90.1797C74.6838 90.3277 74.2108 90.3105 73.789 90.1315C70.3845 88.6824 61.2208 85.4965 46.4655 85.4965C31.7101 85.4965 22.5459 88.6827 19.1405 90.1326C18.7183 90.3119 18.2448 90.329 17.8108 90.1805C17.3769 90.0321 17.013 89.7286 16.7891 89.3283Z" fill="#B3B1B3"/>
<path d="M35.3139 55.7586H39.0311V59.4758H35.3139V55.7586ZM44.607 65.0517H48.3242V68.7689H44.607V65.0517ZM26.0208 65.0517H29.738V68.7689H26.0208V65.0517ZM35.3139 74.3448H39.0311V78.062H35.3139V74.3448ZM53.9001 55.7586H57.6173V59.4758H53.9001V55.7586ZM63.1932 65.0517H66.9104V68.7689H63.1932V65.0517ZM53.9001 74.3448H57.6173V78.062H53.9001V74.3448Z" fill="#969595"/>
<path d="M48.3241 35.3138H11.1517L13.0104 13.0103H46.4655L48.3241 35.3138Z" fill="#E4E4E3"/>
</svg>
