<svg width="121" height="124" viewBox="0 0 121 124" fill="none" xmlns="http://www.w3.org/2000/svg">
<path d="M56.7318 24.1046L56.6237 24.0055C53.773 21.3923 50.3057 19.5452 46.5466 18.6371C42.7874 17.729 38.8593 17.7897 35.13 18.8135C25.5009 21.4567 15.5608 22.7962 5.57555 22.7962H2.26431C0.251026 22.7962 -0.75711 25.2303 0.666332 26.654L3.28515 29.2728C5.17006 31.1577 7.72652 32.2165 10.3921 32.2165H12.7943C15.46 32.2165 18.0164 33.2754 19.9013 35.1603C21.7863 37.0451 24.3427 38.104 27.0083 38.104H31.8964C34.562 38.104 37.1185 39.1629 39.0034 41.0478L40.3773 42.4216C42.2622 44.3065 44.8187 45.3654 47.4843 45.3654H56.7318V24.1046Z" fill="#62A4FB"/>
<path d="M57.5076 65.9098C58.6577 65.5293 59.2239 64.4751 60.3336 63.6933L59.8794 63.5539C51.7212 61.0555 43.6153 58.3889 35.5672 55.5558C34.388 55.1407 33.1615 54.6911 32.3094 53.7761C30.5033 51.837 31.5184 48.1137 34.0586 47.3595C36.1209 46.7472 38.245 47.8836 40.3546 48.3039C42.1231 48.6562 44.0393 48.4754 45.5922 47.5587C47.1452 46.6419 48.2683 44.9306 48.2439 43.1275C48.2078 40.4619 45.7108 38.3251 43.086 37.8573C40.4614 37.3894 37.7849 38.2126 35.3127 39.2105C33.8028 39.82 32.3211 40.2495 30.8733 40.9942C29.5644 41.6675 28.3994 42.5043 27.4294 43.5956C25.5261 45.7371 24.333 48.3452 24.3537 51.2526C24.3756 54.3094 25.7572 57.3318 28.0543 59.3486C30.2874 61.3093 33.2038 62.2662 36.0315 63.1812C40.6594 64.6789 45.2818 66.1934 49.8987 67.7246C53.2306 68.4557 55.1136 66.7018 57.5076 65.9098Z" fill="#A2F5C3"/>
<path d="M63.8577 24.1046L63.9657 24.0055C66.8165 21.3923 70.2838 19.5452 74.0429 18.6371C77.8021 17.729 81.7302 17.7897 85.4595 18.8135C95.0885 21.4567 105.029 22.7962 115.014 22.7962H118.325C120.338 22.7962 121.346 25.2303 119.923 26.654L117.304 29.2728C115.419 31.1577 112.862 32.2165 110.197 32.2165H107.795C105.129 32.2165 102.573 33.2754 100.688 35.1603C98.8027 37.0451 96.2463 38.104 93.5806 38.104H88.6926C86.0269 38.104 83.4705 39.1629 81.5856 41.0478L80.2119 42.4216C78.327 44.3065 75.7706 45.3654 73.1049 45.3654H63.8577V24.1046Z" fill="#62A4FB"/>
<path d="M118.325 22.7962H115.014C113.645 22.7962 112.278 22.7686 110.912 22.7183L109.835 23.7949C107.95 25.6798 105.394 26.7387 102.728 26.7387H100.326C97.6601 26.7386 95.1036 27.7975 93.2187 29.6824C91.3338 31.5672 88.7774 32.6261 86.1117 32.6261H81.2237C78.558 32.6261 76.0016 33.685 74.1167 35.5699L72.743 36.9438C70.8581 38.8286 68.3017 39.8875 65.636 39.8875H63.858V45.3651H73.1055C75.7712 45.3652 78.3276 44.3063 80.2125 42.4214L81.5862 41.0475C83.4711 39.1627 86.0276 38.1038 88.6932 38.1038H93.5812C96.2469 38.1037 98.8033 37.0448 100.688 35.16C102.573 33.2752 105.13 32.2163 107.795 32.2163H110.197C112.863 32.2163 115.42 31.1574 117.304 29.2726L119.923 26.6537C121.347 25.2306 120.338 22.7962 118.325 22.7962Z" fill="#5392F9"/>
<path d="M71.805 98.1803C70.0429 96.3685 67.9739 94.9087 65.8189 93.5736H64.874C63.5123 94.0693 62.1738 94.6313 60.8579 95.2351C60.2489 95.5145 59.6445 95.8037 59.0448 96.1025C58.8468 96.2011 58.6504 96.3022 58.4537 96.4026C58.3581 96.4536 57.9784 96.6521 57.8656 96.7133C59.6431 97.5541 61.4253 98.3887 63.1421 99.3413C65.9573 100.903 68.7255 102.944 69.965 105.915C70.9462 108.268 70.8354 110.872 70.2847 113.4C69.9941 114.733 71.5134 115.741 72.6072 114.925C74.6494 113.402 75.9901 110.826 76.1256 108.235C76.3218 104.486 74.422 100.872 71.805 98.1803Z" fill="#BED9FD"/>
<path d="M68.4455 8.15273C68.4455 3.65011 64.7962 0 60.2948 0C55.7934 0 52.1443 3.65011 52.1443 8.15273C52.1443 11.3659 54.0034 14.1438 56.7037 15.4721V120.167C56.7037 122.143 58.3056 123.745 60.2818 123.745C62.258 123.745 63.86 122.143 63.86 120.167V15.4856C66.5744 14.1625 68.4455 11.3763 68.4455 8.15273Z" fill="#BED9FD"/>
<path d="M60.2947 3.79053e-06C58.9951 -0.00125259 57.7142 0.309831 56.5599 0.907053C59.182 2.26202 60.9759 4.99711 60.9759 8.15274C60.9759 11.3079 59.1815 14.04 56.5602 15.3952C56.6085 15.4201 56.6548 15.448 56.7036 15.4721V88.2534L54.2137 90.9125L56.7036 94.4623V120.167C56.7036 122.143 58.3055 123.745 60.2817 123.745C62.2579 123.745 63.8599 122.143 63.8599 120.167V72.4183L66.3497 69.2026L63.8599 63.7872V15.4856C66.5746 14.1625 68.4454 11.3766 68.4454 8.15299C68.4454 3.65011 64.7961 3.79053e-06 60.2947 3.79053e-06Z" fill="#9EC8FC"/>
<path d="M95.7631 49.0611C95.3371 46.8957 94.2085 44.8981 92.6399 43.3481C91.2722 41.9967 89.5699 40.9853 87.7075 40.4995C86.8303 40.2707 85.9223 40.1489 85.0747 39.8273C84.1687 39.4832 83.3622 38.9222 82.4855 38.5086C80.9525 37.7894 79.2424 37.5348 77.5664 37.7761C74.8153 38.178 72.1318 40.3466 72.0745 43.1263C72.0322 45.1854 73.4701 47.1001 75.3372 47.9693C77.2043 48.8385 79.4066 48.7728 81.3726 48.1588C82.7079 47.7417 84.027 47.0759 85.4216 47.1835C87.0171 47.3067 88.448 48.5439 88.8593 50.0904C89.2706 51.6368 88.6713 53.3879 87.4376 54.407C86.601 55.0982 85.5446 55.4532 84.5143 55.7939L56.9174 64.9243C53.8516 65.9387 50.7139 66.9912 48.1925 69.0087C44.3653 72.0709 42.8742 76.7127 43.1974 81.4634C43.536 86.4381 46.7419 90.2166 50.7829 92.9159C52.6592 94.169 54.6695 95.1884 56.7065 96.1639V88.2537L55.6739 87.6558C54.2077 86.8068 52.709 85.9309 51.6282 84.6262C49.4152 81.9549 49.5587 77.6317 51.9439 75.113C53.57 73.3958 55.914 72.5953 58.1601 71.8551L63.8598 69.9767L67.2522 71.3486L70.372 67.8307L85.0351 62.9985C87.3118 62.2483 89.6334 61.4749 91.5508 60.0363C94.8558 57.5567 96.5606 53.115 95.7631 49.0611Z" fill="#BED9FD"/>
<path d="M75.256 72.5724C73.9294 70.4363 72.5137 69.1068 70.3719 67.8302C67.116 68.9033 66.9788 68.9574 63.8597 69.9762L63.8655 72.418C65.2961 72.9292 66.7012 73.5324 67.832 74.5319C70.0607 76.5008 70.8184 79.9769 69.561 82.6719C68.8083 84.2851 67.4578 85.5397 66.0391 86.6153C63.1531 88.8034 59.8812 90.4138 56.7117 92.1667C53.5421 93.9193 50.4091 95.8653 47.998 98.5675C45.5866 101.27 43.9522 104.846 44.2747 108.453C44.4938 110.903 45.7686 113.298 47.6795 114.79C48.777 115.647 50.3454 114.687 50.0638 113.324C49.5345 110.762 49.3452 108.149 50.3292 105.775C51.6406 102.61 54.7454 100.599 57.783 99.0152C64.163 95.6885 71.4991 92.95 75.1554 86.753C75.7156 85.8002 76.1625 84.7852 76.487 83.7286C77.6293 80.0242 77.2959 75.8567 75.256 72.5724Z" fill="#A2F5C3"/>
</svg>
