<svg width="109" height="103" viewBox="0 0 109 103" fill="none" xmlns="http://www.w3.org/2000/svg">
<path d="M59.8068 37.3793C59.3111 37.3793 58.8357 37.1824 58.4853 36.8319C58.1348 36.4814 57.9378 36.006 57.9378 35.5103V16.8207C57.9378 13.3509 56.5595 10.0233 54.106 7.56978C51.6525 5.11629 48.3249 3.73793 44.8551 3.73793C41.3853 3.73793 38.0577 5.11629 35.6042 7.56978C33.1507 10.0233 31.7724 13.3509 31.7724 16.8207V35.5103C31.7724 36.006 31.5754 36.4814 31.2249 36.8319C30.8744 37.1824 30.3991 37.3793 29.9034 37.3793C29.4077 37.3793 28.9323 37.1824 28.5818 36.8319C28.2313 36.4814 28.0344 36.006 28.0344 35.5103V16.8207C28.0344 12.3596 29.8066 8.08115 32.9611 4.92666C36.1156 1.77217 40.394 0 44.8551 0C49.3162 0 53.5946 1.77217 56.7491 4.92666C59.9036 8.08115 61.6758 12.3596 61.6758 16.8207V35.5103C61.6758 36.006 61.4789 36.4814 61.1284 36.8319C60.7779 37.1824 60.3025 37.3793 59.8068 37.3793Z" fill="#DADCDE"/>
<path d="M63.5448 102.793H0L3.73793 28.0344H59.8068L63.5448 102.793Z" fill="#EB423F"/>
<path d="M78.4965 102.793H63.5448L59.8069 28.0344H74.7586L78.4965 102.793Z" fill="#D13330"/>
<path d="M71.1304 93.4458C71.093 93.4482 71.0556 93.4482 71.0182 93.4482C70.5418 93.4478 70.0835 93.2655 69.737 92.9385C69.3905 92.6115 69.182 92.1646 69.154 91.689L65.416 28.1442C65.4137 28.1068 65.4137 28.0718 65.4137 28.0344H69.1563L72.8872 91.4694C72.9161 91.9644 72.7473 92.4506 72.4179 92.8212C72.0885 93.1918 71.6254 93.4165 71.1304 93.4458Z" fill="#A82A27"/>
<path d="M108.4 102.793H93.4481L93.2145 99.7722V99.7699L89.7102 54.1999H104.662L108.108 98.9826V98.9849L108.4 102.793Z" fill="#EBA72E"/>
<path d="M101.111 93.4388C101.048 93.4454 100.985 93.4485 100.922 93.4481C100.459 93.4475 100.013 93.2752 99.6696 92.9644C99.3264 92.6537 99.1109 92.2267 99.0646 91.766L98.9968 91.0979L95.3266 54.3868C95.32 54.3247 95.3169 54.2623 95.3173 54.1999H99.0646L102.737 90.9273L102.784 91.3923C102.808 91.6365 102.785 91.8831 102.714 92.1181C102.643 92.3531 102.527 92.5719 102.371 92.762C102.216 92.952 102.025 93.1096 101.809 93.2257C101.592 93.3418 101.355 93.4142 101.111 93.4388Z" fill="#E09F2C"/>
<path d="M108.4 102.793H106.153L100.924 94.948L95.6956 102.793H93.4482L93.2146 99.7722V99.7699L98.9967 91.0979L99.3682 90.5419C99.5391 90.286 99.7706 90.0763 100.042 89.9312C100.313 89.7861 100.616 89.7102 100.924 89.7102C101.232 89.7102 101.535 89.7861 101.806 89.9312C102.078 90.0763 102.309 90.286 102.48 90.5419L102.737 90.9273L108.108 98.9826V98.9849L108.4 102.793Z" fill="#E09F2C"/>
<path d="M93.4483 102.793H44.8552L48.5932 54.1999H89.7104L93.4483 102.793Z" fill="#F7B030"/>
<path d="M71.0206 89.7104H67.2827C64.8051 89.7076 62.4299 88.7222 60.678 86.9703C58.9261 85.2184 57.9406 82.8431 57.9379 80.3656V65.4139C57.9379 64.9182 58.1348 64.4428 58.4853 64.0923C58.8358 63.7418 59.3111 63.5449 59.8068 63.5449C60.3025 63.5449 60.7779 63.7418 61.1284 64.0923C61.4789 64.4428 61.6758 64.9182 61.6758 65.4139V80.3656C61.6775 81.8521 62.2687 83.2773 63.3199 84.3284C64.371 85.3795 65.7962 85.9708 67.2827 85.9725H71.0206C72.5071 85.9708 73.9323 85.3795 74.9834 84.3284C76.0346 83.2773 76.6258 81.8521 76.6275 80.3656V65.4139C76.6275 64.9182 76.8244 64.4428 77.1749 64.0923C77.5254 63.7418 78.0008 63.5449 78.4965 63.5449C78.9921 63.5449 79.4675 63.7418 79.818 64.0923C80.1685 64.4428 80.3654 64.9182 80.3654 65.4139V80.3656C80.3626 82.8431 79.3772 85.2184 77.6253 86.9703C75.8734 88.7222 73.4982 89.7076 71.0206 89.7104Z" fill="#E9EEF2"/>
<path d="M16.8208 35.5102H20.5587V46.724H16.8208V35.5102Z" fill="#DADCDE"/>
<path d="M18.6898 37.3793C18.1941 37.3793 17.7187 37.1824 17.3682 36.8319C17.0177 36.4814 16.8208 36.006 16.8208 35.5103V16.8207C16.8208 12.3596 18.593 8.08115 21.7475 4.92666C24.9019 1.77217 29.1804 0 33.6415 0C38.1026 0 42.381 1.77217 45.5355 4.92666C48.69 8.08115 50.4622 12.3596 50.4622 16.8207V35.5103C50.4622 36.006 50.2652 36.4814 49.9147 36.8319C49.5642 37.1824 49.0889 37.3793 48.5932 37.3793C48.0975 37.3793 47.6221 37.1824 47.2716 36.8319C46.9211 36.4814 46.7242 36.006 46.7242 35.5103V16.8207C46.7242 13.3509 45.3459 10.0233 42.8924 7.56978C40.4389 5.11629 37.1112 3.73793 33.6415 3.73793C30.1717 3.73793 26.8441 5.11629 24.3906 7.56978C21.9371 10.0233 20.5587 13.3509 20.5587 16.8207V35.5103C20.5587 36.006 20.3618 36.4814 20.0113 36.8319C19.6608 37.1824 19.1854 37.3793 18.6898 37.3793Z" fill="#E9EEF2"/>
<path d="M24.2965 61.6758H13.0828V46.7241L18.6897 42.9862L24.2965 46.7241V61.6758Z" fill="#F7B030"/>
</svg>
