<svg width="90" height="87" viewBox="0 0 90 87" fill="none" xmlns="http://www.w3.org/2000/svg">
<path d="M62.5059 31.4474H48.2949L53.9793 15.8153H62.5059V31.4474Z" fill="#D6BDEF"/>
<path d="M80.0068 19.8208C79.8405 19.8206 79.6755 19.7918 79.519 19.7354C78.7688 19.4662 78.3782 18.6391 78.6475 17.8889L83.0346 5.65563C83.0983 5.47683 83.1967 5.31237 83.3241 5.17169C83.4515 5.03101 83.6055 4.91688 83.7771 4.83584C83.9488 4.75481 84.1347 4.70846 84.3243 4.69947C84.5139 4.69047 84.7034 4.719 84.882 4.78342C85.6321 5.05271 86.0228 5.8798 85.7535 6.62996L81.3664 18.8632C81.266 19.1434 81.0815 19.3857 80.8381 19.5571C80.5948 19.7285 80.3045 19.8206 80.0068 19.8208Z" fill="#95D6A4"/>
<path d="M78.646 19.3328C78.2723 19.3324 77.9134 19.1871 77.6446 18.9275C77.3758 18.668 77.2182 18.3143 77.2048 17.9409L76.9241 10.1693C76.8946 9.37267 77.5178 8.70278 78.3146 8.67393C79.1338 8.63581 79.7812 9.26758 79.8093 10.0651L80.09 17.8366C80.1195 18.6333 79.4963 19.3032 78.6995 19.3321C78.6813 19.3328 78.6643 19.3328 78.646 19.3328Z" fill="#95D6A4"/>
<path d="M81.3662 20.3079C81.0133 20.3083 80.6725 20.1791 80.4087 19.9447C79.8122 19.4159 79.7558 18.5035 80.2845 17.9063L85.4401 12.0845C85.9731 11.4873 86.8827 11.4344 87.4792 11.961C88.0756 12.4898 88.1321 13.4023 87.6033 13.9994L82.4477 19.8212C82.3123 19.9744 82.1458 20.097 81.9593 20.1809C81.7729 20.2648 81.5707 20.3081 81.3662 20.3079Z" fill="#B3E59F"/>
<path d="M80.4837 17.5921C77.481 16.5152 74.1737 18.0765 73.0969 21.0794L69.703 30.4161H82.0211L83.971 24.9791C85.0478 21.9762 83.4866 18.6689 80.4837 17.5921Z" fill="#FFA95F"/>
<path d="M70.3013 15.1299L69.105 13.9337C68.8368 13.6656 68.6241 13.3472 68.4789 12.9968C68.3338 12.6465 68.2591 12.2709 68.2591 11.8917V7.31171C68.2591 6.92874 68.1069 6.56145 67.8361 6.29064C67.5653 6.01984 67.198 5.86771 66.8151 5.86771H65.3711L64.6998 6.71194V30.4159H71.1471V17.1721C71.1472 16.7928 71.0725 16.4173 70.9274 16.0669C70.7823 15.7164 70.5695 15.3981 70.3013 15.1299Z" fill="#DBEAFF"/>
<path d="M65.371 11.6437H62.483V11.8915C62.483 12.6574 62.1788 13.392 61.6371 13.9335L60.4408 15.1297C60.1726 15.3979 59.9598 15.7163 59.8147 16.0667C59.6695 16.4171 59.5948 16.7927 59.5948 17.1719V21.7517L65.3709 30.4157L65.371 11.6437Z" fill="#C3DDFF"/>
<path d="M65.371 11.6437H62.483V7.31171C62.483 6.92874 62.6351 6.56145 62.9059 6.29064C63.1767 6.01984 63.544 5.86771 63.927 5.86771H65.371C65.7539 5.86771 66.1212 6.01984 66.392 6.29064C66.6628 6.56145 66.815 6.92874 66.815 7.31171L65.371 11.6437ZM59.595 21.7519H62.483C64.0781 21.7519 65.371 23.045 65.371 24.6399V30.4159H59.595V21.7519Z" fill="#B6B1B7"/>
<path d="M66.815 5.86771H65.371V11.6437H68.259V7.31171C68.259 6.92874 68.1068 6.56145 67.836 6.29064C67.5652 6.01984 67.198 5.86771 66.815 5.86771Z" fill="#C8C5C9"/>
<path d="M81.7402 22.6446C81.5616 22.5802 81.3721 22.5518 81.1826 22.5608C80.993 22.5698 80.8071 22.6162 80.6354 22.6972C80.4638 22.7782 80.3099 22.8923 80.1824 23.033C80.055 23.1736 79.9566 23.338 79.8928 23.5168C79.6235 24.2669 80.0141 25.094 80.7643 25.3633L83.483 26.3385H83.4832L83.9707 24.979C84.1362 24.5206 84.2425 24.0429 84.2869 23.5575L81.7402 22.6446ZM72.1214 23.7981L74.8402 24.7733C74.9967 24.8297 75.1617 24.8585 75.328 24.8587C75.6257 24.8585 75.916 24.7665 76.1593 24.5951C76.4026 24.4237 76.5871 24.1813 76.6874 23.9011C76.9567 23.151 76.566 22.3239 75.8159 22.0546L73.0972 21.0794L73.0968 21.0792L73.0966 21.0794L72.1106 23.7918C72.1148 23.7932 72.1174 23.7966 72.1214 23.7981Z" fill="#FF8B5A"/>
<path d="M48.2949 15.8153H53.9793V31.4474H48.2949V15.8153Z" fill="#C3AFF0"/>
<path d="M32.1091 5.14849C32.1747 5.97593 31.6296 11.3199 31.3441 12.0992C30.4656 14.4967 27.2799 18.646 28.3742 23.5168L30.9211 33.2123L42.4733 38.9883L35.3473 5.35623L32.1091 5.14849Z" fill="#FFE07D"/>
<path d="M32.769 5.88008L31.3441 5.1266L30.1752 6.40221L30.3004 7.98278C30.3669 8.8077 30.2541 9.63726 29.9695 10.4144C29.091 12.8119 27.28 18.646 28.3743 23.5167L36.6971 33.2122L32.769 5.88008Z" fill="#FFD064"/>
<path d="M34.6562 1.94451C34.3687 0.505057 32.8459 -0.404221 31.3601 0.178766C30.367 0.568356 29.7965 1.62696 29.8808 2.69012L30.175 6.40224L35.3473 5.3564L34.6562 1.94451Z" fill="#C38C66"/>
<path d="M26.1064 12.4643L22.0183 11.3415L27.1475 31.7682H35.2532L26.1064 12.4643Z" fill="#FFE07D"/>
<path d="M22.2513 13.1921L21.3367 14.7222L21.8382 16.2267C22.1011 17.0114 22.1909 17.8438 22.1014 18.6665C21.8248 21.2048 21.4686 27.3032 23.701 31.7683H31.1837L23.744 13.5829L22.2513 13.1921Z" fill="#FFD064"/>
<path d="M24.6156 9.31841C23.9907 7.99034 22.294 7.47363 20.9918 8.39637C20.1215 9.0131 19.8218 10.1779 20.1591 11.1896L21.3367 14.7223L26.106 12.4643L24.6156 9.31841Z" fill="#C38C66"/>
<path d="M44.2838 20.2163H38.1411C37.9515 20.2163 37.7637 20.2536 37.5886 20.3262C37.4134 20.3988 37.2542 20.5051 37.1201 20.6392C36.986 20.7733 36.8796 20.9325 36.8071 21.1077C36.7345 21.2829 36.6971 21.4707 36.6971 21.6603V30.3243H51.1373V27.4363L44.2838 20.2163Z" fill="#B3E59F"/>
<path d="M51.1371 27.4362H42.4731C40.878 27.4362 39.5851 26.1431 39.5851 24.5482V21.6602L41.486 20.784H49.413L51.1371 21.6602V27.4362Z" fill="#CCF49F"/>
<path d="M39.5851 10.108H49.6931C50.076 10.108 50.4433 10.2602 50.7141 10.531C50.9849 10.8018 51.1371 11.1691 51.1371 11.5521V21.6601H39.5851L38.1411 11.5521C38.1411 11.1691 38.2932 10.8018 38.564 10.531C38.8348 10.2602 39.2021 10.108 39.5851 10.108Z" fill="#DAD8DB"/>
<path d="M38.1411 10.108C37.9515 10.108 37.7637 10.1454 37.5886 10.218C37.4134 10.2905 37.2542 10.3969 37.1201 10.531C36.986 10.6651 36.8796 10.8243 36.8071 10.9995C36.7345 11.1746 36.6971 11.3624 36.6971 11.5521V21.6601H39.5851V10.108H38.1411Z" fill="#C8C5C9"/>
<path d="M45.3611 17.3281H42.4731C41.6748 17.3281 41.0291 16.6815 41.0291 15.8841C41.0291 15.0867 41.675 14.4401 42.4731 14.4401H45.3611C46.1593 14.4401 46.8051 15.0867 46.8051 15.8841C46.8051 16.6815 46.1593 17.3281 45.3611 17.3281Z" fill="#CCF49F"/>
<path d="M18.9613 30.9464L15.4669 21.8078C14.4206 19.0753 11.7546 17.2406 8.8306 17.2406H5.66229V20.0828H8.8306C10.5848 20.0828 12.185 21.1848 12.8122 22.8238L16.3052 31.9624C16.5217 32.5286 17.0615 32.8755 17.6333 32.8755C17.8025 32.8755 17.9732 32.8449 18.1412 32.7825C18.8739 32.5022 19.2404 31.6805 18.9613 30.9464ZM83.8223 79.7645H24.8374L32.3496 61.5212C31.3293 61.3425 30.4516 60.9685 29.7163 60.45L21.401 80.6444C21.2205 81.0829 21.2706 81.5825 21.5342 81.9766C21.7979 82.3708 22.2407 82.6067 22.7153 82.6067H83.8222C84.6077 82.6067 85.2433 81.971 85.2433 81.1856C85.2433 80.4001 84.6078 79.7645 83.8223 79.7645Z" fill="#DAD8DB"/>
<path d="M22.7154 86.8699C25.8548 86.8699 28.3998 84.3249 28.3998 81.1855C28.3998 78.0461 25.8548 75.5011 22.7154 75.5011C19.576 75.5011 17.031 78.0461 17.031 81.1855C17.031 84.3249 19.576 86.8699 22.7154 86.8699Z" fill="#5D5360"/>
<path d="M22.7154 84.0277C24.2851 84.0277 25.5575 82.7553 25.5575 81.1856C25.5575 79.6159 24.2851 78.3434 22.7154 78.3434C21.1457 78.3434 19.8732 79.6159 19.8732 81.1856C19.8732 82.7553 21.1457 84.0277 22.7154 84.0277Z" fill="#C8C5C9"/>
<path d="M88.0857 30.0307H17.3154L16.9395 31.8109L26.3819 58.5293C28.2729 63.4751 32.1149 64.9502 37.3592 64.2184L83.3833 57.7965C83.3833 57.7965 88.618 55.7814 88.6211 55.7064C88.669 54.5381 89.5069 53.5096 89.5069 52.2697V31.4518C89.5069 31.0748 89.3571 30.7134 89.0906 30.4469C88.8241 30.1804 88.4626 30.0307 88.0857 30.0307Z" fill="#FF8086"/>
<path d="M83.8224 86.8699C86.9618 86.8699 89.5068 84.3249 89.5068 81.1855C89.5068 78.0461 86.9618 75.5011 83.8224 75.5011C80.683 75.5011 78.138 78.0461 78.138 81.1855C78.138 84.3249 80.683 86.8699 83.8224 86.8699Z" fill="#5D5360"/>
<path d="M83.8224 84.0277C85.3921 84.0277 86.6645 82.7553 86.6645 81.1856C86.6645 79.6159 85.3921 78.3434 83.8224 78.3434C82.2527 78.3434 80.9802 79.6159 80.9802 81.1856C80.9802 82.7553 82.2527 84.0277 83.8224 84.0277Z" fill="#C8C5C9"/>
<path d="M5.66226 20.0786H1.39898C1.02594 20.0728 0.670161 19.9205 0.408429 19.6546C0.146697 19.3888 0 19.0306 0 18.6576C0 18.2845 0.146697 17.9263 0.408429 17.6605C0.670161 17.3946 1.02594 17.2423 1.39898 17.2365H5.66226C6.0353 17.2423 6.39108 17.3946 6.65281 17.6605C6.91454 17.9263 7.06124 18.2845 7.06124 18.6576C7.06124 19.0306 6.91454 19.3888 6.65281 19.6546C6.39108 19.9205 6.0353 20.0728 5.66226 20.0786Z" fill="#5D5360"/>
<path d="M88.62 55.7059L36.9662 62.914C36.5737 62.9687 36.1779 62.9963 35.7815 62.9965C32.2754 62.9965 29.0774 60.7934 27.8236 57.5144L17.3153 30.0307H16.3372C15.3412 30.0307 14.6541 31.0288 15.0098 31.9592L25.1689 58.5293C27.0598 63.4751 32.1149 66.4605 37.359 65.7289L83.3831 59.3069C85.6612 58.989 87.5668 57.6013 88.62 55.7059Z" fill="#E5646E"/>
<path d="M35.6107 61.4819C35.4877 61.5159 35.3607 61.5331 35.2331 61.5333C34.6101 61.5333 34.0369 61.1197 33.8649 60.4883L27.1687 36.091C26.9606 35.3347 27.406 34.5519 28.1625 34.3452C28.9173 34.1357 29.7016 34.5811 29.9083 35.3389L36.6044 59.7362C36.8125 60.4923 36.3669 61.275 35.6107 61.4819Z" fill="#FFE07D"/>
<path d="M44.8103 60.3842C44.7329 60.3974 44.6544 60.4039 44.5758 60.4036C43.893 60.4036 43.2908 59.911 43.1755 59.2156L39.3106 35.9479C39.2799 35.7638 39.2858 35.5755 39.3279 35.3937C39.3701 35.2119 39.4476 35.0402 39.5561 34.8883C39.6647 34.7365 39.802 34.6076 39.9604 34.5089C40.1188 34.4102 40.2951 34.3437 40.4792 34.3131C41.2536 34.1799 41.9849 34.7073 42.114 35.4817L45.9789 58.7492C46.0096 58.9333 46.0037 59.1217 45.9615 59.3035C45.9194 59.4853 45.8418 59.657 45.7333 59.8088C45.6248 59.9606 45.4874 60.0896 45.3291 60.1883C45.1707 60.287 44.9944 60.3536 44.8103 60.3842Z" fill="#B3E59F"/>
<path d="M64.6377 56.2819C64.6377 57.0674 64.002 57.703 63.2166 57.703C62.4311 57.703 61.7955 57.0674 61.7955 56.2819V35.715C61.7955 34.9295 62.4311 34.2939 63.2166 34.2939C64.002 34.2939 64.6377 34.9295 64.6377 35.715V56.2819Z" fill="#A4CCFF"/>
<path d="M73.697 55.0925C73.697 55.878 73.0614 56.5136 72.2759 56.5136C71.4904 56.5136 70.8548 55.878 70.8548 55.0925V35.715C70.8548 34.9295 71.4904 34.2939 72.2759 34.2939C73.0614 34.2939 73.697 34.9295 73.697 35.715V55.0925Z" fill="#FFD064"/>
<path d="M82.4011 53.5243C82.4011 54.3098 81.7655 54.9454 80.98 54.9454C80.1945 54.9454 79.5589 54.3098 79.5589 53.5243V35.7107C79.5589 34.9252 80.1945 34.2896 80.98 34.2896C81.7655 34.2896 82.4011 34.9252 82.4011 35.7107V53.5243Z" fill="#FFA95F"/>
</svg>
