<svg width="184" height="40" viewBox="0 0 184 40" fill="none" xmlns="http://www.w3.org/2000/svg">
<path d="M9.96 25.72C10.4933 25.72 10.76 26.4267 10.76 27.84C10.76 29.28 10.4933 30 9.96 30H0.6V0.359998H5.2V25.72H9.96ZM18.8088 10.56V30H9.96875C9.43542 30 9.16875 29.28 9.16875 27.84C9.16875 26.4267 9.43542 25.72 9.96875 25.72H14.2088V10.56H18.8088ZM19.6888 7.76C18.9954 7.76 18.4088 7.52 17.9288 7.04C17.4754 6.56 17.2488 5.96 17.2488 5.24C17.2488 4.49333 17.4754 3.89333 17.9288 3.44C18.4088 2.96 18.9954 2.72 19.6888 2.72C20.3821 2.72 20.9554 2.96 21.4088 3.44C21.8888 3.89333 22.1288 4.49333 22.1288 5.24C22.1288 5.96 21.8888 6.56 21.4088 7.04C20.9554 7.52 20.3821 7.76 19.6888 7.76ZM13.3688 7.76C12.6754 7.76 12.0888 7.52 11.6088 7.04C11.1554 6.56 10.9288 5.96 10.9288 5.24C10.9288 4.49333 11.1554 3.89333 11.6088 3.44C12.0888 2.96 12.6754 2.72 13.3688 2.72C14.0621 2.72 14.6354 2.96 15.0888 3.44C15.5688 3.89333 15.8088 4.49333 15.8088 5.24C15.8088 5.96 15.5688 6.56 15.0888 7.04C14.6354 7.52 14.0621 7.76 13.3688 7.76ZM32.8878 25.72C33.4211 25.72 33.6878 26.4267 33.6878 27.84C33.6878 29.28 33.4211 30 32.8878 30H28.4878V30.08C28.4878 32.88 27.7278 35.0667 26.2078 36.64C24.6878 38.2133 22.5945 39.0267 19.9278 39.08L19.2078 34.76C20.8611 34.8667 22.0478 34.5467 22.7678 33.8C23.5145 33.08 23.8878 31.84 23.8878 30.08V10.56H28.4878V25.72H32.8878ZM47.0584 9.36C49.6184 9.36 52.3651 10.0933 55.2984 11.56V30H32.8984C32.3651 30 32.0984 29.28 32.0984 27.84C32.0984 26.4267 32.3651 25.72 32.8984 25.72H37.7384C36.5384 24.0133 35.9384 22.0933 35.9384 19.96C35.9384 17.96 36.4318 16.16 37.4184 14.56C38.4051 12.9333 39.7518 11.6667 41.4584 10.76C43.1651 9.82667 45.0318 9.36 47.0584 9.36ZM40.5384 19.92C40.5384 21.3867 40.9518 22.64 41.7784 23.68C42.6318 24.6933 43.7784 25.3733 45.2184 25.72H50.6984V14.28C49.3384 13.8533 48.1384 13.64 47.0984 13.64C45.8451 13.64 44.7118 13.92 43.6984 14.48C42.7118 15.0133 41.9384 15.76 41.3784 16.72C40.8184 17.68 40.5384 18.7467 40.5384 19.92ZM47.0984 5.96C46.3251 5.96 45.6851 5.69333 45.1784 5.16C44.6718 4.62667 44.4184 3.96 44.4184 3.16C44.4184 2.36 44.6718 1.70667 45.1784 1.2C45.6851 0.666666 46.3251 0.4 47.0984 0.4C47.8718 0.4 48.5118 0.666666 49.0184 1.2C49.5251 1.70667 49.7784 2.36 49.7784 3.16C49.7784 3.96 49.5251 4.62667 49.0184 5.16C48.5118 5.69333 47.8718 5.96 47.0984 5.96ZM78.6028 12.2V30.08C78.6028 32.88 77.8428 35.0667 76.3228 36.64C74.8028 38.2133 72.7095 39.0267 70.0428 39.08L69.3228 34.76C70.9761 34.8667 72.1628 34.5467 72.8828 33.8C73.6295 33.08 74.0028 31.84 74.0028 30.08V29.32C72.5095 29.7733 71.0295 30 69.5628 30C67.5628 30 65.7095 29.5467 64.0028 28.64C62.3228 27.7067 60.9761 26.4533 59.9628 24.88C58.9761 23.3067 58.4828 21.5733 58.4828 19.68C58.4828 17.7867 58.9761 16.0533 59.9628 14.48C60.9761 12.9067 62.3228 11.6667 64.0028 10.76C65.7095 9.82667 67.5628 9.36 69.5628 9.36C70.9495 9.36 72.4295 9.61333 74.0028 10.12C75.6028 10.6 77.0561 11.2667 78.3628 12.12L78.6028 12.2ZM69.6828 25.72C71.0428 25.72 72.4828 25.3867 74.0028 24.72V14.68C72.4828 13.9867 71.0428 13.64 69.6828 13.64C68.4295 13.64 67.2961 13.92 66.2828 14.48C65.2695 15.0133 64.4828 15.7467 63.9228 16.68C63.3628 17.5867 63.0828 18.5867 63.0828 19.68C63.0828 20.7733 63.3628 21.7867 63.9228 22.72C64.4828 23.6267 65.2695 24.36 66.2828 24.92C67.2961 25.4533 68.4295 25.72 69.6828 25.72ZM84.5844 0.359998H89.1844V30H84.5844V0.359998Z" fill="#FFD333"/>
<path d="M116.443 25.72C116.976 25.72 117.243 26.4267 117.243 27.84C117.243 29.28 116.976 30 116.443 30H112.043V30.08C112.043 32.88 111.283 35.0667 109.763 36.64C108.243 38.2133 106.149 39.0267 103.482 39.08L102.762 34.76C104.416 34.8667 105.603 34.5467 106.323 33.8C107.069 33.08 107.443 31.84 107.443 30.08V10.56H112.043V25.72H116.443ZM143.013 25.72C143.546 25.72 143.813 26.4267 143.813 27.84C143.813 29.28 143.546 30 143.013 30H116.453C115.92 30 115.653 29.28 115.653 27.84C115.653 26.4267 115.92 25.72 116.453 25.72H132.333V19.64C132.333 17.6133 131.68 16 130.373 14.8C129.093 13.6 127.373 13 125.213 13C122.84 13 120.626 13.7333 118.573 15.2L116.573 11.28C119.186 9.57333 122.066 8.72 125.213 8.72C127.48 8.72 129.493 9.18667 131.253 10.12C133.04 11.0533 134.426 12.3467 135.413 14C136.426 15.6533 136.933 17.5333 136.933 19.64V25.72H143.013ZM124.933 38.76C124.16 38.76 123.52 38.4933 123.013 37.96C122.506 37.4267 122.253 36.76 122.253 35.96C122.253 35.16 122.506 34.4933 123.013 33.96C123.52 33.4533 124.16 33.2 124.933 33.2C125.706 33.2 126.346 33.4533 126.853 33.96C127.36 34.4933 127.613 35.16 127.613 35.96C127.613 36.76 127.36 37.4267 126.853 37.96C126.346 38.4933 125.706 38.76 124.933 38.76ZM158.656 25.72C159.189 25.72 159.456 26.4267 159.456 27.84C159.456 29.28 159.189 30 158.656 30H156.456C154.189 30 152.322 29.4267 150.856 28.28C149.602 29.4267 147.669 30 145.056 30H143.016C142.482 30 142.216 29.28 142.216 27.84C142.216 26.4267 142.482 25.72 143.016 25.72H144.696C146.136 25.72 147.122 25.44 147.656 24.88C148.189 24.2933 148.456 23.2933 148.456 21.88V10.56H153.056V21.92C153.056 23.12 152.936 24.1867 152.696 25.12C153.389 25.52 154.229 25.72 155.216 25.72H158.656ZM153.936 7.76C153.242 7.76 152.656 7.52 152.176 7.04C151.722 6.56 151.496 5.96 151.496 5.24C151.496 4.49333 151.722 3.89333 152.176 3.44C152.656 2.96 153.242 2.72 153.936 2.72C154.629 2.72 155.202 2.96 155.656 3.44C156.136 3.89333 156.376 4.49333 156.376 5.24C156.376 5.96 156.136 6.56 155.656 7.04C155.202 7.52 154.629 7.76 153.936 7.76ZM147.616 7.76C146.922 7.76 146.336 7.52 145.856 7.04C145.402 6.56 145.176 5.96 145.176 5.24C145.176 4.49333 145.402 3.89333 145.856 3.44C146.336 2.96 146.922 2.72 147.616 2.72C148.309 2.72 148.882 2.96 149.336 3.44C149.816 3.89333 150.056 4.49333 150.056 5.24C150.056 5.96 149.816 6.56 149.336 7.04C148.882 7.52 148.309 7.76 147.616 7.76ZM171.121 8.72C173.387 8.72 175.494 9.56 177.441 11.24C179.387 12.8933 180.907 15.16 182.001 18.04C183.094 20.8933 183.574 24.0267 183.441 27.44C181.601 28.2667 179.614 28.9067 177.481 29.36C175.374 29.7867 173.467 30 171.761 30C169.201 30 166.707 29.4533 164.281 28.36C162.947 29.4533 161.254 30 159.201 30H158.641C158.107 30 157.841 29.28 157.841 27.84C157.841 26.4267 158.107 25.72 158.641 25.72H159.201C160.054 25.72 160.721 25.52 161.201 25.12C161.707 24.6933 162.027 24.0267 162.161 23.12L162.281 22.08C162.521 19.9733 162.854 18 163.281 16.16C163.734 14.32 164.587 12.6267 165.841 11.08C167.121 9.50667 168.881 8.72 171.121 8.72ZM166.601 24.56C168.254 25.3333 169.987 25.72 171.801 25.72C173.934 25.72 176.267 25.3333 178.801 24.56C178.614 22.5067 178.134 20.6 177.361 18.84C176.587 17.0533 175.654 15.64 174.561 14.6C173.494 13.5333 172.414 13 171.321 13C170.281 13 169.454 13.48 168.841 14.44C168.254 15.3733 167.841 16.4533 167.601 17.68C167.361 18.9067 167.147 20.36 166.961 22.04L166.721 23.96L166.601 24.56Z" fill="#3D464D"/>
</svg>
