<svg width="106" height="106" viewBox="0 0 106 106" fill="none" xmlns="http://www.w3.org/2000/svg">
<path d="M65.0455 86.7273V81.909H45.7728V86.7273C45.7728 89.3773 43.6045 91.5455 40.9545 91.5455H36.1363C34.6908 91.5455 33.7273 92.5092 33.7273 93.9545C33.7273 95.4 34.691 96.3635 36.1363 96.3635H74.6818C76.1273 96.3635 77.0908 95.3998 77.0908 93.9545C77.0908 92.509 76.1271 91.5455 74.6818 91.5455H69.8636C67.2138 91.5455 65.0455 89.3773 65.0455 86.7273Z" fill="#D5E3EF"/>
<path d="M45.7728 81.909V84.318H57.8183C59.2638 84.318 60.2273 85.2818 60.2273 86.727C60.2273 88.1725 61.191 89.1361 62.6363 89.1361H63.8408C64.5636 89.1361 65.0453 88.6543 65.0453 87.9316V81.9088L45.7728 81.909ZM74.6818 96.3637H36.1363C34.6908 96.3637 33.7273 95.4 33.7273 93.9547H77.091C77.091 95.4 76.1273 96.3637 74.6818 96.3637Z" fill="#B0C4D9"/>
<path d="M101.182 81.909H14.4545C11.8045 81.909 9.63623 79.7408 9.63623 77.0908V14.4545C9.63623 11.8045 11.8045 9.63627 14.4545 9.63627H101.182C103.832 9.63627 106 11.8045 106 14.4545V77.0908C106 79.741 103.832 81.909 101.182 81.909Z" fill="#D5E3EF"/>
<path d="M106 67.4545H9.63623V14.4545C9.63623 11.8045 11.8045 9.63627 14.4545 9.63627H101.182C103.832 9.63627 106 11.8045 106 14.4545V67.4545Z" fill="#595A66"/>
<path d="M55.409 77.0908C56.7395 77.0908 57.818 76.0122 57.818 74.6818C57.818 73.3513 56.7395 72.2728 55.409 72.2728C54.0786 72.2728 53 73.3513 53 74.6818C53 76.0122 54.0786 77.0908 55.409 77.0908Z" fill="#595A66"/>
<path d="M14.4546 14.4545H101.182V62.6363H14.4546V14.4545Z" fill="#70B7E5"/>
<path d="M28.909 96.3637H4.81824C2.16824 96.3637 0 94.1955 0 91.5455V43.3637C0 40.7137 2.16824 38.5455 4.81824 38.5455H28.9092C31.5592 38.5455 33.7275 40.7137 33.7275 43.3637V91.5455C33.7273 94.1955 31.559 96.3637 28.909 96.3637Z" fill="#595A66"/>
<path d="M28.909 96.3637H4.81824C2.16824 96.3637 0 94.1955 0 91.5455V43.3637C0 40.7137 2.16824 38.5455 4.81824 38.5455H28.9092C31.5592 38.5455 33.7275 40.7137 33.7275 43.3637V91.5455C33.7273 94.1955 31.559 96.3637 28.909 96.3637Z" fill="#595A66"/>
<path d="M31.3181 39.2682V91.5455C31.3181 92.991 30.3544 93.9545 28.9091 93.9545H0.722656C1.4454 95.4 3.13167 96.3635 4.81815 96.3635H28.9091C31.5591 96.3635 33.7274 94.1953 33.7274 91.5453V43.3637C33.7272 41.6772 32.7636 39.991 31.3181 39.2682Z" fill="#494A52"/>
<path d="M4.81836 48.1818H28.9093V86.7273H4.81836V48.1818Z" fill="#70B7E5"/>
<path d="M16.8639 93.9545C18.1943 93.9545 19.2729 92.876 19.2729 91.5455C19.2729 90.215 18.1943 89.1365 16.8639 89.1365C15.5334 89.1365 14.4548 90.215 14.4548 91.5455C14.4548 92.876 15.5334 93.9545 16.8639 93.9545Z" fill="#35363E"/>
<path d="M20.4772 45.7728H13.2499C12.5272 45.7728 12.0454 45.291 12.0454 44.5682C12.0454 43.8455 12.5272 43.3637 13.2499 43.3637H20.4772C21.1999 43.3637 21.6817 43.8455 21.6817 44.5682C21.6817 45.291 21.1999 45.7728 20.4772 45.7728Z" fill="#35363E"/>
<path d="M28.9091 86.7273H16.8638L28.9091 74.6818V86.7273ZM12.0455 86.7273L28.9091 69.8637V65.0455L7.22729 86.7273H12.0455Z" fill="#90CEF1"/>
<path d="M4.81836 48.1818H28.9093V50.5908H4.81836V48.1818Z" fill="#4C9CD6"/>
<path d="M2.40902 85.7637C2.40902 87.932 1.44529 90.1 0 91.5455V43.3637C1.44549 44.8092 2.40902 46.9775 2.40902 49.1455V85.7637Z" fill="#6F707E"/>
<path d="M96.3637 60.2272H77.0909L98.7727 38.5455V57.8182C98.7727 59.2637 97.809 60.2272 96.3637 60.2272ZM69.8637 60.2272L98.7727 31.3182V24.091L62.6362 60.2272H69.8637Z" fill="#90CEF1"/>
<path d="M22.6455 12.0455C20.4773 12.0455 18.3093 11.0818 16.8638 9.63647H65.0455C63.6 11.082 61.4318 12.0455 59.2638 12.0455H22.6455Z" fill="#6F707E"/>
<path d="M33.7273 62.6363H38.5455V67.4545H33.7273V62.6363Z" fill="#35363E"/>
<path d="M33.7273 67.4545H38.5455V81.909H33.7273V67.4545Z" fill="#B0C4D9"/>
<path d="M38.5455 62.6363H33.7273V43.3635C36.3773 43.3635 38.5455 45.5318 38.5455 48.1818V62.6363Z" fill="#4C9CD6"/>
</svg>
