<svg width="125" height="126" viewBox="0 0 125 126" fill="none" xmlns="http://www.w3.org/2000/svg">
<g clip-path="url(#clip0_132_1107)">
<path d="M78.3242 100.373L102.566 82.9186C105.326 80.9282 109.163 81.571 111.138 84.3538C111.235 84.4901 111.326 84.6305 111.411 84.7746C113.065 87.5508 112.318 91.143 109.697 93.0158L83.9702 114.511C81.6902 116.416 78.8216 117.458 75.8601 117.458H23.2395V91.8306L33.5933 83.1324C35.1165 81.8532 37.0364 81.1528 39.019 81.1529H66.6716C69.5974 81.1529 71.9683 83.5427 71.9683 86.4919C71.9683 89.4411 69.5974 91.8309 66.6716 91.8309H52.9004C50.5593 91.8309 48.6631 93.7423 48.6631 96.1021C48.6631 98.4619 50.5593 100.373 52.9004 100.373H78.3242V100.373Z" fill="#FEC9A3"/>
<path d="M0 89.695H23.2395V126H0V89.695Z" fill="#4398D1"/>
<path d="M10.5933 117.458C12.9335 117.458 14.8306 115.545 14.8306 113.186C14.8306 110.827 12.9335 108.915 10.5933 108.915C8.25306 108.915 6.35596 110.827 6.35596 113.186C6.35596 115.545 8.25306 117.458 10.5933 117.458Z" fill="#E5E5E5"/>
<path d="M2.11865 68.339H125C125 75.4164 119.309 81.1526 112.288 81.1526H14.8306C7.80933 81.1526 2.11865 75.4164 2.11865 68.339Z" fill="#D1D1D1"/>
<path d="M116.525 68.339H10.5933V66.2034C10.5933 36.7172 34.3071 12.8136 63.5593 12.8136C92.8115 12.8136 116.525 36.7172 116.525 66.2034V68.339Z" fill="#E5E5E5"/>
<path d="M28.178 42.729L24.6418 40.3798C25.8732 38.5049 27.2353 36.7207 28.718 35.0408L31.8855 37.8768C30.5376 39.404 29.2987 41.0254 28.178 42.729ZM34.572 35.0772L31.6716 31.9656C40.2963 23.7686 51.7055 19.2084 63.5593 19.2204V23.4916C52.7838 23.481 42.4124 27.6262 34.572 35.0772Z" fill="white"/>
<path d="M69.9153 0H57.2034V4.2712H61.4407V12.8136H65.678V4.2712H69.9153V0Z" fill="#D1D1D1"/>
<path d="M94.3877 68.339C82.5926 74.3866 69.9995 78.7016 56.9915 81.1526H112.288C119.309 81.1526 125 75.4164 125 68.339H94.3877Z" fill="#C9C9C9"/>
<path d="M116.525 66.2034C116.532 58.9332 115.061 51.7386 112.203 45.0634C109.345 38.3882 105.161 32.3739 99.9089 27.3912C85.0488 48.7706 58.1462 61.5414 39.0063 68.339H116.525V66.2034Z" fill="#DEDEDE"/>
<path d="M111.718 85.4238C111.629 85.2042 111.526 84.9903 111.411 84.7832C109.667 81.8488 105.894 80.8942 102.983 82.6518C102.841 82.7372 102.701 82.829 102.566 82.9272L99.0869 85.4238H111.718ZM71.8601 85.4238C71.356 82.938 69.1885 81.1526 66.6716 81.1526H39.019C37.0364 81.1525 35.1165 81.853 33.5933 83.1322L30.8665 85.4236L71.8601 85.4238Z" fill="#F7BB8F"/>
</g>
<defs>
<clipPath id="clip0_132_1107">
<rect width="125" height="126" fill="white"/>
</clipPath>
</defs>
</svg>
