<svg width="120" height="120" viewBox="0 0 120 120" fill="none" xmlns="http://www.w3.org/2000/svg">
<path d="M56.834 35.9747V76.4203C56.834 79.8178 59.5879 82.5717 62.9854 82.5717H113.848C117.245 82.5717 120 79.8178 120 76.4203V35.9747H56.834Z" fill="#ED5176"/>
<path d="M117.603 24.9555C113.53 24.9555 110.229 21.6541 110.229 17.5809V2.46C110.229 1.10156 109.126 0 107.768 0H102.617C102.528 0 102.441 0.0046875 102.355 0.0138281C103.591 0.144609 104.554 1.18922 104.554 2.46V17.5809C104.554 21.6541 107.856 24.9555 111.929 24.9555C113.252 24.9555 114.325 26.0285 114.325 27.3523V76.4203C114.325 79.8178 111.572 82.5717 108.173 82.5717H113.848C117.245 82.5717 120 79.8178 120 76.4203V27.3523C120 26.0295 118.927 24.9555 117.603 24.9555Z" fill="#BA365F"/>
<path d="M117.603 24.9555C113.53 24.9555 110.229 21.6541 110.229 17.5809V2.46C110.229 1.10156 109.126 0 107.768 0H102.617C101.258 0 100.157 1.10156 100.157 2.46V11.3114C100.157 17.7492 95.0544 23.1354 88.6175 23.2434C82.0422 23.3524 76.6771 18.0551 76.6771 11.5055V2.46C76.6771 1.10156 75.5748 0 74.2161 0H69.0655C67.7068 0 66.6055 1.10156 66.6055 2.46V17.5819C66.6055 21.6541 63.3041 24.9553 59.2309 24.9553C57.9069 24.9553 56.8333 26.0295 56.8333 27.3532V35.9747L88.416 51.1277L120 35.9747V27.3523C120 26.0295 118.927 24.9555 117.603 24.9555Z" fill="#E9E9EA"/>
<path d="M117.603 24.9555C113.53 24.9555 110.229 21.6541 110.229 17.5809V2.46C110.229 1.10156 109.126 0 107.768 0H102.617C102.595 0 102.573 0.0009375 102.551 0.0009375H102.547C102.483 0.0028125 102.419 0.00726562 102.355 0.0138281C103.591 0.144609 104.554 1.19039 104.554 2.46V17.5819C104.554 21.6541 107.856 24.9553 111.929 24.9553C113.252 24.9553 114.325 26.0295 114.325 27.3532V38.6974L120 35.9747V27.3523C120 26.0295 118.927 24.9555 117.603 24.9555Z" fill="#C5C4CC"/>
<path d="M26.8276 102.523H21.4405C20.9282 102.523 20.4369 102.319 20.0746 101.957C19.7124 101.594 19.5089 101.103 19.5088 100.591V9.22336C19.5087 8.96965 19.5586 8.71842 19.6557 8.48401C19.7528 8.2496 19.895 8.03661 20.0744 7.85721C20.2538 7.6778 20.4668 7.53549 20.7012 7.43841C20.9356 7.34133 21.1868 7.29137 21.4405 7.2914H26.8276C27.894 7.2914 28.7584 8.15672 28.7584 9.22336V100.591C28.7584 101.658 27.8943 102.523 26.8276 102.523V102.523Z" fill="#E9E9EA"/>
<path d="M19.5088 37.4543H28.7584V42.8871H19.5088V37.4543Z" fill="#C5C4CC"/>
<path d="M41.3745 37.4543H6.8932C3.08602 37.4543 0 34.368 0 30.5602C0 26.7532 3.08625 23.6672 6.89297 23.6672H41.3745C45.1812 23.6672 48.2674 26.7532 48.2674 30.5602C48.2674 34.3678 45.1812 37.4543 41.3745 37.4543Z" fill="#575B7A"/>
<path d="M32.3696 14.5826H15.898C12.973 14.5826 10.6016 16.9538 10.6016 19.8788V23.6672H37.6665V19.8788C37.6665 16.9538 35.2953 14.5826 32.3691 14.5826H32.3696Z" fill="#6A7193"/>
<path d="M41.3745 72.3595H6.8932C3.08602 72.3595 0 75.4458 0 79.2525C0 83.0595 3.08625 86.1455 6.89297 86.1455H41.3745C45.1812 86.1455 48.2674 83.0595 48.2674 79.2525C48.2674 75.4458 45.1812 72.3595 41.3745 72.3595Z" fill="#575B7A"/>
<path d="M41.3746 23.6672H35.5806C39.3873 23.6672 42.4735 26.7534 42.4735 30.5602C42.4735 34.368 39.3873 37.4543 35.5806 37.4543H41.3748C45.1815 37.4543 48.2678 34.3681 48.2678 30.5604C48.2678 26.7534 45.1815 23.6674 41.3748 23.6674L41.3746 23.6672ZM41.3746 72.3595H35.5806C39.3873 72.3595 42.4735 75.4458 42.4735 79.2525C42.4735 83.0595 39.3873 86.1455 35.5806 86.1455H41.3748C45.1815 86.1455 48.2678 83.0595 48.2678 79.2525C48.2678 75.4458 45.1813 72.3595 41.3746 72.3595Z" fill="#252D4C"/>
<path d="M32.3696 95.2312H15.898C12.973 95.2312 10.6016 92.8601 10.6016 89.9351V86.1457H37.6665V89.9351C37.6665 92.8601 35.2953 95.2312 32.3691 95.2312H32.3696Z" fill="#6A7193"/>
<path d="M32.3696 14.5826H26.5752C29.5002 14.5826 31.8714 16.9538 31.8714 19.8788V23.6672H37.6668V19.8788C37.6668 16.9538 35.2956 14.5826 32.3694 14.5826H32.3696ZM31.8714 86.1457V89.9351C31.8714 92.8591 29.5002 95.2313 26.5752 95.2313H32.3694C35.2944 95.2313 37.6668 92.8594 37.6668 89.9351V86.1457H31.8714Z" fill="#575B7A"/>
<path d="M40.6806 100.213H105.966C108.785 100.213 111.07 97.9275 111.07 95.1087V65.0775C111.07 62.397 108.897 60.2243 106.217 60.2243H105.092C104.406 60.2243 103.738 60.4389 103.181 60.8379C102.624 61.2368 102.205 61.8002 101.984 62.449C100.205 67.6767 95.2953 71.1924 89.773 71.1924C84.3439 71.1924 79.4963 67.7939 77.646 62.6899C77.3845 61.9674 76.9067 61.343 76.2776 60.9018C75.6485 60.4606 74.8987 60.224 74.1303 60.2243H69.7321C68.8533 60.224 67.991 60.4626 67.2374 60.9145L35.1306 80.16C33.5309 81.1187 32.2069 82.4754 31.2876 84.0981C30.3684 85.7207 29.8852 87.5538 29.8853 89.4188C29.8853 95.3796 34.7185 100.213 40.6806 100.213Z" fill="#8CBAFA"/>
<path d="M106.217 60.2243H105.092C104.225 60.2243 103.417 60.5641 102.82 61.1372C104.042 62.0187 104.839 63.4552 104.839 65.0775V95.1096C104.839 97.9275 102.554 100.213 99.7349 100.213H105.966C108.785 100.213 111.07 97.9275 111.07 95.1096V65.0775C111.07 62.397 108.897 60.2243 106.217 60.2243Z" fill="#5692D8"/>
<path d="M64.3599 62.6395L58.1817 66.3427L81.8152 100.213H90.5778L64.3599 62.6395ZM64.4175 100.213H73.1799L52.0927 69.9921L45.9146 73.6952L64.4175 100.213Z" fill="#F9AA4B"/>
<path d="M29.8928 89.7016C30.0428 95.5317 34.8128 100.213 40.6804 100.213H105.966C108.785 100.213 111.07 97.9275 111.07 95.1087V89.7016H29.8928Z" fill="#E9E9EA"/>
<path d="M104.839 95.1094C104.839 97.9266 102.556 100.211 99.7395 100.213H105.966C108.785 100.213 111.07 97.9275 111.07 95.1096V89.7016H104.839L104.839 95.1094Z" fill="#C5C4CC"/>
<path d="M48.7044 79.0603L67.8407 67.5898C68.5175 67.1843 69.0777 66.6104 69.4666 65.924C69.8556 65.2376 70.06 64.4621 70.0599 63.6731V60.2234H69.7321C68.8532 60.2234 67.9907 60.4624 67.2374 60.9148L43.5517 75.1116C42.5502 75.712 42.2954 77.0522 43.007 77.978C44.3565 79.733 46.8055 80.1982 48.7044 79.0601V79.0603Z" fill="#E9E9EA"/>
<path d="M89.5366 39.9802H89.316V32.8821C89.316 31.3448 88.0654 30.0942 86.5282 30.0942H85.3118C85.0739 30.0942 84.8384 30.141 84.6187 30.232C84.3989 30.323 84.1993 30.4564 84.0311 30.6246C83.8629 30.7928 83.7295 30.9924 83.6385 31.2121C83.5475 31.4319 83.5007 31.6674 83.5007 31.9052C83.5007 32.906 84.3117 33.716 85.3115 33.716H85.6952V39.9802H85.4737C85.2359 39.9801 85.0004 40.0269 84.7806 40.1179C84.5609 40.209 84.3612 40.3423 84.1931 40.5105C84.0249 40.6787 83.8915 40.8784 83.8005 41.0981C83.7095 41.3178 83.6627 41.5533 83.6627 41.7912C83.6627 42.792 84.4736 43.602 85.4735 43.602H89.5366C89.7744 43.602 90.0099 43.5553 90.2297 43.4643C90.4494 43.3733 90.6491 43.24 90.8173 43.0718C90.9855 42.9036 91.1189 42.704 91.2099 42.4843C91.3009 42.2645 91.3477 42.029 91.3476 41.7912C91.3477 41.5533 91.3009 41.3178 91.2099 41.098C91.119 40.8782 90.9856 40.6786 90.8174 40.5104C90.6492 40.3422 90.4495 40.2088 90.2298 40.1178C90.01 40.0268 89.7744 39.9801 89.5366 39.9802Z" fill="#575B7A"/>
</svg>
