<svg width="142" height="142" viewBox="0 0 142 142" fill="none" xmlns="http://www.w3.org/2000/svg">
<path d="M70.0505 142C107.578 142 138 111.578 138 74.0508C138 36.5235 107.578 6.10156 70.0505 6.10156C32.5232 6.10156 2.10132 36.5235 2.10132 74.0508C2.10132 111.578 32.5232 142 70.0505 142Z" fill="#F3D5D5"/>
<path d="M98.0623 18.1943V4.04977C98.0623 2.52438 96.9335 1.80884 95.5538 2.45948L89.397 5.363C88.0172 6.01364 86.8884 7.79419 86.8884 9.31958V18.1946L98.0623 18.1943Z" fill="#AA3584"/>
<path d="M92.6328 18.1943V12.2031C92.6328 10.6777 93.7616 8.89719 95.1414 8.24654L98.0623 6.86897V4.04977C98.0623 2.52438 96.9335 1.80884 95.5538 2.45948L89.397 5.363C88.0172 6.01364 86.8884 7.79419 86.8884 9.31958V18.1946L92.6328 18.1943Z" fill="#832968"/>
<path d="M93.6248 61.1543C93.6248 65.8062 92.1344 70.1144 89.6125 73.6362H98.0623V42.6006H86.8884V45.5493C91.0319 49.4698 93.6248 55.0131 93.6248 61.1543Z" fill="#2B41AD"/>
<path d="M92.6328 73.6362V67.61C91.9452 69.7891 90.9155 71.8165 89.6125 73.6362H92.6328ZM92.6328 54.6986V42.6006H86.8884V45.5493C89.5149 48.034 91.519 51.1694 92.6328 54.6986Z" fill="#232E7A"/>
<path d="M86.8884 17.917H98.0623V42.8779H86.8884V17.917Z" fill="#8A94DB"/>
<path d="M86.8884 17.917H92.6328V34.0029H86.8884V17.917ZM86.8884 34.0029H98.0623V42.8779H86.8884V34.0029Z" fill="#717ED4"/>
<path d="M86.8884 34.0029H92.6328V42.8779H86.8884V34.0029Z" fill="#5766CC"/>
<path d="M89.9641 73.6362C92.443 70.1014 93.9021 65.7995 93.9021 61.1543C93.9021 49.1301 84.1549 39.3828 72.1306 39.3828C60.1067 39.3828 50.3591 49.1301 50.3591 61.1543C50.3591 65.7995 51.8185 70.1014 54.2971 73.6362H89.9641Z" fill="#E279B3"/>
<path d="M62.7303 73.6362C60.252 70.1025 58.7968 65.7987 58.7968 61.1543C58.7968 50.5742 66.3449 41.7599 76.3496 39.7949C74.9599 39.5212 73.547 39.3832 72.1306 39.3828C60.1067 39.3828 50.3591 49.1301 50.3591 61.1543C50.3591 65.7995 51.8185 70.1014 54.2971 73.6362H62.7303Z" fill="#DE5CA3"/>
<path d="M78.107 59.8192H66.1541C65.0053 59.8192 64.074 58.8881 64.074 57.7391C64.074 56.5901 65.0053 55.659 66.1541 55.659H78.107C79.2558 55.659 80.1871 56.5901 80.1871 57.7391C80.1871 58.8881 79.2558 59.8192 78.107 59.8192ZM75.5907 66.6496H68.6707C67.5219 66.6496 66.5906 65.7185 66.5906 64.5695C66.5906 63.4205 67.5219 62.4894 68.6707 62.4894H75.5907C76.1423 62.4894 76.6714 62.7086 77.0615 63.0987C77.4516 63.4888 77.6708 64.0178 77.6708 64.5695C77.6708 65.1212 77.4516 65.6503 77.0615 66.0403C76.6714 66.4304 76.1423 66.6496 75.5907 66.6496Z" fill="#DB387E"/>
<path d="M102.222 63.2346H118.863V73.6361H102.222V63.2346Z" fill="#B3094E"/>
<path d="M102.222 63.2346H107.887V73.6361H102.222V63.2346Z" fill="#84004F"/>
<path d="M102.222 57.6878H118.863V63.512H102.222V57.6878Z" fill="#E09380"/>
<path d="M102.222 57.6878H107.887V63.512H102.222V57.6878Z" fill="#D76718"/>
<path d="M139.089 93.3972L131.441 85.7491C131.055 85.3628 130.563 85.1001 130.027 84.9945C130.011 86.4289 129.459 87.8583 128.367 88.9505C127.309 90.0089 125.906 90.5963 124.412 90.6126C124.518 91.1475 124.78 91.639 125.166 92.0246L132.814 99.6729C133.893 100.752 135.658 100.752 136.736 99.6729L139.09 97.3196C140.168 96.2408 140.168 94.476 139.089 93.3972Z" fill="#5766CC"/>
<path d="M135.747 96.8265L128.107 89.1863C127.089 90.0931 125.776 90.5999 124.412 90.6126C124.518 91.1475 124.78 91.639 125.166 92.0246L132.814 99.6729C133.893 100.752 135.658 100.752 136.736 99.6729L139.09 97.3196C139.126 97.2833 139.158 97.2445 139.192 97.2068C138.121 97.8835 136.679 97.7579 135.747 96.8265Z" fill="#3D4EC4"/>
<path d="M49.1695 67.5421L45.3663 60.7139C45.3316 60.7377 45.2997 60.7643 45.2623 60.7851L27.55 70.65C27.513 70.6699 27.4751 70.688 27.4363 70.7041L29.0693 73.6359H45.4065L47.8177 72.293C49.4956 71.3583 50.1044 69.2208 49.1695 67.5421Z" fill="#5766CC"/>
<path d="M27.5497 70.65C27.5128 70.6699 27.4748 70.688 27.436 70.7041L29.069 73.6359H36.3124L32.9685 67.6317L27.5497 70.65Z" fill="#2B41AD"/>
<path d="M27.6848 70.8924C27.3383 71.0853 26.9334 71.1458 26.5456 71.0624C26.1578 70.9791 25.8135 70.7577 25.5768 70.4395L2.70145 39.6685C2.56268 39.4816 2.46538 39.2673 2.41606 39.0398C2.36674 38.8124 2.36652 38.577 2.41543 38.3495C2.46433 38.1219 2.56124 37.9074 2.69966 37.7203C2.83809 37.5332 3.01485 37.3778 3.21814 37.2645L29.6884 22.522C29.8917 22.4085 30.117 22.3399 30.349 22.3206C30.5811 22.3013 30.8145 22.3318 31.0338 22.41C31.2531 22.4883 31.4532 22.6125 31.6206 22.7743C31.788 22.9362 31.9189 23.1319 32.0045 23.3485L46.1221 58.9968C46.2681 59.3656 46.2751 59.775 46.1418 60.1485C46.0085 60.5221 45.7439 60.8345 45.3974 61.0275L27.6848 70.8924Z" fill="white"/>
<path d="M31.3158 67.4927L23.9851 57.6315C22.3816 56.8758 21.056 55.6356 20.1954 54.0859C19.6988 53.1956 19.3666 52.223 19.215 51.2149L7.97843 36.0996C7.83939 35.9123 7.74121 35.6979 7.69023 35.4702C7.63926 35.2426 7.63663 35.0068 7.68251 34.7781L3.21838 37.2645C3.0151 37.3778 2.83833 37.5332 2.69991 37.7203C2.56148 37.9074 2.46458 38.1219 2.41567 38.3495C2.36676 38.577 2.36698 38.8124 2.4163 39.0398C2.46563 39.2673 2.56292 39.4816 2.70169 39.6685L25.577 70.4395C25.8137 70.7577 26.1581 70.9791 26.5459 71.0624C26.9337 71.1458 27.3385 71.0853 27.6851 70.8924L32.5858 68.1631C32.3375 68.153 32.0946 68.0876 31.8749 67.9717C31.6552 67.8557 31.4641 67.692 31.3158 67.4927Z" fill="#E6F7FE"/>
<path d="M27.6233 58.451C32.319 58.451 36.1256 54.6444 36.1256 49.9488C36.1256 45.2531 32.319 41.4465 27.6233 41.4465C22.9277 41.4465 19.1211 45.2531 19.1211 49.9488C19.1211 54.6444 22.9277 58.451 27.6233 58.451Z" fill="#5766CC"/>
<path d="M34.5511 54.4828C30.4486 56.7675 25.2709 55.2943 22.9861 51.1918C21.4707 48.4705 21.6102 45.2775 23.0718 42.7683C19.2875 45.1624 17.9898 50.1246 20.1955 54.0859C22.4803 58.1884 27.6583 59.6616 31.7605 57.3769C33.0921 56.6373 34.1994 55.552 34.9655 54.2354C34.8301 54.3208 34.6925 54.404 34.5511 54.4828Z" fill="#5766CC"/>
<path d="M29.6884 22.522L3.21814 37.2645C3.01485 37.3778 2.83809 37.5332 2.69966 37.7203C2.56124 37.9074 2.46433 38.1219 2.41543 38.3495C2.36652 38.577 2.36674 38.8124 2.41606 39.0399C2.46538 39.2673 2.56268 39.4816 2.70145 39.6685L4.5799 42.1954L33.1635 26.2758L32.0039 23.3482C31.9183 23.1317 31.7874 22.9361 31.62 22.7743C31.4527 22.6126 31.2527 22.4884 31.0334 22.4102C30.8142 22.332 30.5808 22.3015 30.3488 22.3208C30.1169 22.34 29.8917 22.4086 29.6884 22.522Z" fill="#EDF6FF"/>
<path d="M129.129 81.3682C127.989 79.8381 126.256 79.0169 124.486 78.9739L121.647 90.2413C123.603 91.2331 126.031 91.111 127.909 89.7121C130.55 87.7446 131.096 84.0091 129.129 81.3682Z" fill="#717ED4"/>
<path d="M122.77 86.983C122.69 86.8771 122.621 86.7673 122.551 86.658L121.648 90.2413C123.603 91.2331 126.032 91.111 127.91 89.7121C128.073 89.5901 128.228 89.4617 128.376 89.3263C126.29 89.6156 124.116 88.7908 122.77 86.983Z" fill="#5766CC"/>
<path d="M124.207 74.9022C123.832 74.4216 123.353 74.0328 122.805 73.7653C122.258 73.4979 121.657 73.3588 121.047 73.3588H19.0539C18.4445 73.3589 17.8433 73.4979 17.2958 73.7654C16.7484 74.0329 16.2692 74.4217 15.8946 74.9023C15.5201 75.3829 15.2602 75.9427 15.1346 76.5389C15.009 77.1351 15.0211 77.7521 15.1699 78.343L25.6177 119.812H114.483L124.931 78.3432C125.08 77.7523 125.092 77.1352 124.967 76.539C124.841 75.9427 124.581 75.3829 124.207 74.9022Z" fill="#DB387E"/>
<path d="M36.9081 119.422L26.7463 78.3432C26.5973 77.7524 26.585 77.1353 26.7106 76.539C26.8361 75.9427 27.096 75.3829 27.4706 74.9023C27.8451 74.4216 28.3244 74.0328 28.8719 73.7654C29.4195 73.4979 30.0208 73.359 30.6302 73.3591H19.0539C18.4445 73.3591 17.8433 73.4982 17.2958 73.7657C16.7484 74.0332 16.2692 74.422 15.8946 74.9026C15.5201 75.3832 15.2602 75.9429 15.1346 76.5392C15.009 77.1354 15.0211 77.7524 15.1699 78.3432L25.519 119.422H36.9081Z" fill="#B3094E"/>
<path d="M113.016 125.637L114.582 119.422H25.5193L27.0849 125.637H113.016Z" fill="white"/>
<path d="M36.9081 119.422H25.5193L27.0849 125.637H38.4454L36.9081 119.422Z" fill="#EDF6FF"/>
<path d="M113.115 125.246H26.9866L27.4178 126.959C39.0765 136.365 53.9042 142 70.0506 142C86.197 142 101.025 136.365 112.683 126.959L113.115 125.246Z" fill="#B3094E"/>
<path d="M70.0505 108.667C79.3175 108.667 86.8298 103.972 86.8298 98.1797C86.8298 92.3878 79.3175 87.6925 70.0505 87.6925C60.7836 87.6925 53.2712 92.3878 53.2712 98.1797C53.2712 103.972 60.7836 108.667 70.0505 108.667Z" fill="white"/>
<path d="M59.0741 98.1797C59.0741 93.0067 65.0686 88.7115 72.9521 87.8522C71.9885 87.7465 71.0199 87.6933 70.0505 87.6928C60.7837 87.6928 53.2712 92.3879 53.2712 98.18C53.2712 103.972 60.7837 108.667 70.0505 108.667C71.0407 108.667 72.0091 108.611 72.9521 108.508C65.0686 107.648 59.0741 103.353 59.0741 98.1797Z" fill="#EDF6FF"/>
<path d="M57.8474 37.7188C68.2632 37.7188 76.7068 29.2751 76.7068 18.8594C76.7068 8.44363 68.2632 0 57.8474 0C47.4317 0 38.988 8.44363 38.988 18.8594C38.988 29.2751 47.4317 37.7188 57.8474 37.7188Z" fill="#717ED4"/>
<path d="M57.8474 33.0999C65.7122 33.0999 72.0879 26.7242 72.0879 18.8594C72.0879 10.9946 65.7122 4.61888 57.8474 4.61888C49.9826 4.61888 43.6069 10.9946 43.6069 18.8594C43.6069 26.7242 49.9826 33.0999 57.8474 33.0999Z" fill="#E9A52D"/>
<path d="M52.29 24.4487C47.4895 19.6481 46.8366 12.275 50.324 6.76996C49.401 7.34404 48.5467 8.02174 47.7777 8.78985C42.2164 14.3512 42.2164 23.3676 47.7777 28.9286C53.3392 34.4905 62.356 34.4902 67.917 28.9286C68.6611 28.1836 69.3205 27.3586 69.8831 26.4686C64.3878 29.8952 57.0656 29.2248 52.29 24.4487Z" fill="#E38523"/>
<path d="M47.7777 8.78986C42.2164 14.3512 42.2164 23.3676 47.7777 28.9286L67.917 8.78986C62.356 3.22828 53.339 3.22856 47.7777 8.78986Z" fill="#E38523"/>
<path d="M38.3491 125.246H26.9866L27.4178 126.959C31.5546 130.296 36.0683 133.137 40.8665 135.424L38.3491 125.246Z" fill="#84004F"/>
<path d="M50.324 6.76996C49.401 7.34404 48.5467 8.02174 47.7777 8.78985C42.2164 14.3512 42.2164 23.3676 47.7777 28.9286L52.2742 24.432C47.4884 19.6315 46.8405 12.2686 50.324 6.76996Z" fill="#D76718"/>
<path d="M10.1881 39.0722L7.97819 36.0996C7.83915 35.9123 7.74096 35.6979 7.68999 35.4702C7.63901 35.2426 7.63638 35.0068 7.68226 34.7781L3.21814 37.2645C3.01485 37.3778 2.83809 37.5332 2.69966 37.7203C2.56124 37.9074 2.46433 38.1219 2.41543 38.3495C2.36652 38.577 2.36674 38.8124 2.41606 39.0398C2.46538 39.2673 2.56268 39.4816 2.70145 39.6685L4.5799 42.1954L10.1881 39.0722Z" fill="#DDEBFD"/>
<path d="M116.09 35.2227H104.996C103.47 35.2232 102.222 36.471 102.222 37.9961V57.9651H118.863V37.9961C118.863 36.471 117.615 35.2229 116.09 35.2227Z" fill="#B3094E"/>
<path d="M110.66 35.2227H104.996C103.47 35.2232 102.222 36.471 102.222 37.9961V57.9651H107.887V37.9961C107.887 36.471 109.135 35.2232 110.66 35.2227Z" fill="#84004F"/>
</svg>
